<?xml version="1.0" standalone="no"?>
<!DOCTYPE svg PUBLIC "-//W3C//DTD SVG 20010904//EN"
 "http://www.w3.org/TR/2001/REC-SVG-20010904/DTD/svg10.dtd">
<svg version="1.0" xmlns="http://www.w3.org/2000/svg"
 width="640.000000pt" height="402.000000pt" viewBox="0 0 640.000000 402.000000"
 preserveAspectRatio="xMidYMid meet">

<g transform="translate(0.000000,402.000000) scale(0.100000,-0.100000)"
fill="#000000" stroke="none">
<path d="M462 3849 c-11 -30 -91 -231 -176 -448 -86 -216 -155 -395 -153 -397
4 -5 936 132 943 138 4 4 -538 701 -581 747 -11 11 -16 4 -33 -40z"/>
<path d="M3714 3319 c-16 -17 -16 -22 -4 -30 45 -30 51 -31 66 -12 20 26 17
38 -11 51 -32 15 -29 16 -51 -9z"/>
<path d="M3628 3310 c-16 -10 -16 -12 -1 -38 12 -22 22 -27 40 -24 31 6 36 15
22 46 -13 27 -32 32 -61 16z"/>
<path d="M3456 3217 c-15 -19 -26 -39 -26 -45 0 -7 27 -25 60 -42 l60 -30 35
47 c19 27 35 52 35 56 0 12 -82 47 -112 47 -19 0 -35 -10 -52 -33z"/>
<path d="M3902 3224 c10 -10 20 -16 22 -13 3 3 -5 11 -17 18 -21 13 -21 12 -5
-5z"/>
<path d="M1716 3190 c-4 -24 -3 -47 2 -52 4 -4 35 -11 69 -14 l61 -7 4 44 c3
24 2 47 -1 51 -4 5 -34 11 -67 14 l-61 7 -7 -43z"/>
<path d="M1590 3099 c-6 -23 -8 -45 -3 -49 4 -4 43 -13 86 -20 43 -7 80 -17
84 -23 11 -18 -89 -86 -151 -101 -25 -6 -28 -10 -22 -38 9 -47 24 -60 59 -52
l30 6 -5 -40 c-6 -38 -4 -40 24 -46 50 -10 86 -7 91 7 3 8 8 39 12 70 6 49 12
60 42 83 70 53 107 126 84 163 -8 12 -270 81 -308 81 -7 0 -17 -19 -23 -41z"/>
<path d="M3927 3124 c-4 -4 -7 -22 -7 -40 0 -30 3 -33 33 -36 17 -2 31 -6 30
-10 -2 -5 -3 -28 -3 -53 l0 -45 -44 0 c-43 0 -44 -1 -48 -36 -2 -20 0 -37 6
-39 6 -2 68 -6 139 -8 l127 -5 0 39 0 39 -51 0 c-48 0 -51 1 -45 23 3 12 6 34
6 50 0 24 4 27 34 27 29 0 34 4 40 31 3 17 4 35 1 39 -2 4 -46 11 -96 15 -51
3 -97 9 -103 11 -7 3 -15 1 -19 -2z"/>
<path d="M5587 3119 c-27 -16 -47 -64 -47 -114 0 -39 3 -46 18 -41 9 2 37 8
61 11 32 5 53 17 83 47 45 45 42 58 -27 89 -46 21 -63 23 -88 8z"/>
<path d="M1990 3113 c0 -6 4 -14 9 -17 17 -11 22 -74 8 -113 -13 -37 -12 -40
10 -56 18 -14 27 -15 43 -7 25 13 25 22 0 45 -14 13 -20 31 -20 61 0 31 -7 50
-25 71 -13 15 -25 23 -25 16z"/>
<path d="M3360 3079 l-43 -31 51 -51 51 -51 40 28 c51 35 65 52 56 67 -8 12
-95 69 -105 69 -4 0 -26 -14 -50 -31z"/>
<path d="M3625 3005 c-71 -57 -140 -112 -152 -122 l-23 -18 43 -48 42 -48 64
42 c69 46 180 145 212 190 l20 29 -33 40 c-18 22 -35 39 -38 39 -3 0 -63 -47
-135 -104z"/>
<path d="M5874 3086 c-18 -8 -34 -18 -37 -23 -3 -5 10 -29 29 -53 28 -36 47
-49 91 -62 30 -10 58 -16 62 -14 12 8 12 77 1 112 -7 19 -20 39 -30 44 -26 14
-79 12 -116 -4z"/>
<path d="M5758 3006 l-26 -24 46 -6 c25 -3 46 -5 48 -4 1 2 -8 15 -19 30 l-22
27 -27 -23z"/>
<path d="M4220 3000 c0 -40 59 -109 94 -110 16 0 18 5 13 42 -4 27 -14 49 -27
60 -23 19 -80 25 -80 8z"/>
<path d="M6140 2998 c0 -7 -3 -22 -5 -33 -4 -15 7 -31 46 -64 l51 -44 -7 34
c-8 39 -40 91 -67 108 -14 9 -18 8 -18 -1z"/>
<path d="M437 2970 c-105 -5 -142 -11 -154 -23 -14 -14 -13 -58 11 -489 15
-260 29 -527 33 -592 5 -98 10 -123 25 -138 11 -11 27 -17 36 -14 9 2 78 12
152 21 100 13 140 22 154 36 19 17 19 23 -18 326 -20 169 -36 320 -36 336 0
61 22 32 157 -203 55 -96 133 -235 173 -309 108 -197 87 -182 270 -193 121 -7
156 -6 166 4 13 13 25 194 59 892 13 256 14 312 3 323 -20 20 -316 39 -334 21
-10 -10 -16 -95 -24 -332 -5 -176 -12 -322 -15 -324 -7 -7 0 -16 -95 143 -110
183 -220 354 -283 437 -48 64 -86 90 -126 86 -9 0 -78 -4 -154 -8z"/>
<path d="M5632 2857 c-29 -41 -52 -81 -52 -89 0 -7 17 -47 38 -88 42 -84 46
-87 164 -89 l68 -1 33 46 c18 25 42 61 51 79 l18 34 -37 80 c-21 44 -43 82
-51 85 -7 3 -50 8 -96 12 l-84 6 -52 -75z m191 -35 c31 -28 39 -59 23 -97 -34
-79 -138 -74 -166 10 -13 40 -4 62 37 95 31 25 74 21 106 -8z"/>
<path d="M5558 2913 c-13 -3 -16 -11 -11 -36 3 -18 7 -33 8 -35 1 -1 14 16 29
38 27 42 24 46 -26 33z"/>
<path d="M1840 2878 l-23 -32 44 -38 c24 -21 46 -38 49 -38 6 0 60 76 60 84 0
7 -84 56 -96 56 -6 0 -21 -14 -34 -32z"/>
<path d="M3000 2670 l0 -240 65 0 65 0 0 116 0 116 64 -36 c35 -20 67 -36 69
-36 3 0 20 25 38 56 30 54 31 58 14 70 -19 14 -113 44 -138 44 -9 0 -23 -10
-31 -22 -15 -21 -16 -16 -16 75 l0 97 -65 0 -65 0 0 -240z"/>
<path d="M5942 2892 c2 -4 12 -24 22 -46 19 -43 19 -43 34 0 10 30 9 32 -25
42 -19 6 -33 7 -31 4z"/>
<path d="M3350 2874 c0 -10 5 -26 10 -34 8 -12 10 -9 7 12 -4 32 -17 50 -17
22z"/>
<path d="M5445 2876 c-48 -21 -88 -74 -80 -105 8 -31 39 -67 79 -92 l30 -18
23 59 c23 57 24 60 8 114 -9 31 -19 56 -23 56 -4 -1 -21 -7 -37 -14z"/>
<path d="M2117 2854 c-21 -14 -54 -32 -73 -40 -40 -17 -41 -23 -11 -69 26 -41
30 -41 99 -15 58 22 103 26 113 10 7 -12 -89 -116 -157 -170 l-47 -37 33 -32
c17 -17 37 -31 42 -31 21 0 151 99 196 149 77 85 108 172 73 201 -8 7 -54 15
-101 19 -64 5 -89 11 -99 24 -16 23 -24 22 -68 -9z"/>
<path d="M4400 2826 c-69 -23 -131 -44 -138 -47 -10 -3 -12 -15 -7 -43 l8 -38
63 7 63 7 -7 -54 c-4 -29 -7 -71 -7 -93 l0 -40 46 -3 46 -3 7 68 c4 37 9 82
12 100 5 29 4 32 -23 35 -23 3 -14 7 44 26 40 12 74 26 77 30 8 13 -32 92 -46
91 -7 0 -69 -20 -138 -43z"/>
<path d="M6031 2796 c-21 -52 -21 -57 -7 -111 8 -31 16 -59 18 -60 2 -2 23 6
47 18 79 39 98 102 48 155 -19 20 -67 52 -80 52 -2 0 -13 -24 -26 -54z"/>
<path d="M3794 2828 c-4 -6 -20 -59 -35 -117 -23 -88 -31 -106 -46 -104 -10 0
-41 4 -69 8 l-52 8 -10 -34 c-6 -19 -25 -90 -43 -158 -38 -144 -39 -140 62
-161 59 -13 61 -14 55 -41 -3 -16 -10 -79 -17 -140 -12 -127 -1 -239 31 -315
29 -67 100 -136 185 -179 69 -36 76 -37 97 -23 13 9 57 66 98 128 l74 113 -31
26 c-43 36 -63 88 -63 163 1 62 13 144 23 154 3 3 30 -1 60 -9 43 -11 60 -12
71 -3 17 13 91 289 83 310 -3 7 -18 17 -34 20 -15 4 -44 11 -64 17 l-37 9 30
116 c21 87 26 119 18 129 -10 12 -329 95 -365 95 -7 0 -17 -5 -21 -12z"/>
<path d="M4670 2763 c0 -25 -35 -62 -70 -75 -24 -8 -29 -16 -34 -60 -4 -28 -5
-52 -3 -54 2 -2 45 -7 96 -11 103 -7 111 -3 111 52 -1 39 -49 135 -77 153 -21
13 -23 13 -23 -5z"/>
<path d="M2593 2726 c-34 -6 -64 -14 -68 -17 -3 -4 -3 -23 0 -43 l7 -36 54 6
c49 6 54 5 54 -12 0 -31 -49 -127 -83 -162 l-32 -33 28 -25 c33 -28 45 -24
100 32 51 53 88 136 95 211 8 97 -10 106 -155 79z"/>
<path d="M6266 2685 c-9 -45 -55 -98 -117 -133 -42 -23 -49 -32 -49 -57 0 -47
-18 -99 -48 -140 l-27 -39 42 -106 c24 -59 46 -127 49 -151 8 -55 -9 -119 -41
-157 l-24 -28 24 -40 c29 -49 57 -155 56 -214 -3 -196 -154 -345 -421 -416
-85 -23 -126 -28 -218 -29 l-113 0 6 -33 c56 -298 41 -519 -43 -662 -47 -79
-156 -181 -237 -221 -134 -66 -325 -94 -445 -66 -36 9 -66 14 -67 13 -11 -10
26 -85 57 -116 76 -76 256 -90 445 -35 115 34 185 74 260 149 73 73 116 153
144 263 26 102 26 193 1 388 -11 83 -20 153 -20 156 0 3 42 4 93 1 80 -4 109
0 222 27 135 33 223 73 301 137 80 65 134 179 134 285 0 54 -30 159 -60 207
l-20 33 24 32 c14 18 30 54 37 81 15 59 5 103 -52 243 -38 94 -38 95 -19 115
30 33 51 85 57 144 3 30 10 54 15 54 5 0 34 16 64 35 99 63 123 176 57 268
-38 55 -59 59 -67 12z"/>
<path d="M5532 2671 c-10 -28 -8 -30 20 -40 17 -6 33 -11 35 -11 2 0 -6 18
-17 40 -11 22 -22 40 -24 40 -2 0 -9 -13 -14 -29z"/>
<path d="M5080 2632 c-20 -72 -21 -70 93 -98 34 -8 34 -12 -2 -61 -31 -43
-101 -98 -169 -132 l-42 -21 24 -38 c29 -46 60 -47 142 -7 112 55 234 203 234
284 0 41 -23 54 -145 81 -55 12 -105 23 -112 25 -7 2 -17 -12 -23 -33z"/>
<path d="M5943 2635 l-22 -35 36 0 c28 0 34 3 29 16 -3 9 -6 24 -6 35 0 28
-12 23 -37 -16z"/>
<path d="M5504 2554 c-16 -86 29 -151 95 -139 29 6 86 29 99 41 2 1 -13 24
-33 51 -31 41 -45 50 -96 65 l-58 16 -7 -34z"/>
<path d="M2746 2532 c-9 -17 -16 -35 -16 -40 0 -12 111 -45 120 -35 11 12 33
84 27 89 -3 3 -30 8 -60 11 -54 5 -56 5 -71 -25z"/>
<path d="M5710 2529 c20 -36 35 -39 65 -15 l30 24 -52 3 c-44 4 -50 2 -43 -12z"/>
<path d="M5905 2543 c-17 -3 -50 -23 -77 -49 l-47 -44 37 -25 c48 -32 96 -41
127 -25 29 15 35 29 44 98 l8 52 -31 -1 c-17 -1 -44 -4 -61 -6z"/>
<path d="M4537 2465 c-4 -9 -7 -29 -7 -45 0 -30 18 -40 74 -40 27 0 28 -2 22
-31 -3 -17 -6 -53 -6 -80 l0 -49 -66 0 -65 0 3 -47 3 -48 188 -3 187 -2 0 50
0 50 -70 0 c-79 0 -76 -5 -64 98 l7 52 48 0 49 0 0 44 c0 53 3 52 -171 62
-113 6 -127 5 -132 -11z"/>
<path d="M2058 2450 c-84 -15 -177 -51 -239 -92 -141 -94 -210 -260 -175 -425
56 -269 304 -412 593 -341 63 15 76 36 89 141 6 51 9 97 7 104 -8 20 -34 24
-72 12 -106 -36 -228 -2 -285 79 -37 53 -47 139 -22 187 34 62 120 86 165 44
27 -25 18 -40 -41 -70 -21 -11 -38 -27 -38 -36 0 -21 80 -151 97 -157 17 -7
142 38 214 76 114 60 141 117 108 223 -57 186 -218 288 -401 255z"/>
<path d="M5262 2332 l-31 -39 62 -52 62 -52 42 48 c24 26 41 52 40 57 -4 11
-92 61 -123 70 -17 5 -28 -2 -52 -32z"/>
<path d="M3081 2185 c-41 -52 -75 -95 -77 -95 -1 0 -44 38 -95 85 -50 47 -100
85 -110 85 -23 0 -259 -159 -273 -183 -10 -16 6 -35 113 -137 l125 -118 -36
-44 c-20 -23 -70 -81 -112 -128 -42 -46 -76 -89 -76 -96 0 -16 23 -34 133
-103 54 -33 108 -61 121 -61 14 0 61 34 129 96 l107 96 93 -86 c59 -55 100
-86 115 -86 12 0 79 39 147 86 97 66 125 91 125 108 0 15 -34 53 -115 126 -63
57 -115 105 -115 107 0 2 29 41 65 88 69 91 105 153 105 182 0 22 -239 173
-273 173 -17 0 -42 -25 -96 -95z"/>
<path d="M5685 2240 c-221 -33 -364 -153 -340 -284 9 -44 53 -119 109 -185 61
-70 68 -84 57 -114 -11 -28 -66 -57 -109 -57 -39 0 -62 -9 -62 -24 0 -6 17
-56 38 -111 l38 -100 71 -3 c199 -8 421 100 453 220 22 79 -2 138 -104 263
-36 44 -66 86 -66 95 1 36 34 56 108 66 29 4 54 10 57 14 8 12 -67 195 -87
213 -22 18 -72 21 -163 7z"/>
<path d="M4779 2072 c-70 -36 -109 -96 -116 -179 -10 -119 81 -222 205 -231
160 -11 277 157 213 304 -29 64 -46 82 -106 110 -69 33 -129 31 -196 -4z"/>
<path d="M4295 1691 c-80 -20 -125 -64 -146 -142 -22 -83 23 -173 106 -210
101 -46 219 8 255 117 42 126 -87 266 -215 235z"/>
<path d="M4917 1621 c-76 -15 -142 -32 -148 -38 -7 -7 1 -67 25 -184 37 -188
81 -461 90 -574 6 -61 3 -76 -16 -114 -25 -48 -77 -83 -155 -101 -48 -12 -49
-13 -57 -128 -7 -101 4 -112 117 -112 196 0 356 88 423 234 39 85 47 151 34
284 -23 234 -103 726 -122 749 -14 17 -28 16 -191 -16z"/>
<path d="M940 1580 c-15 -35 -30 -38 -55 -10 -25 27 -31 25 -42 -12 -9 -34
-22 -38 -70 -23 -19 6 -22 3 -25 -32 -3 -40 -10 -43 -55 -29 -21 7 -23 4 -23
-33 0 -39 -1 -40 -37 -43 -28 -2 -37 -7 -34 -18 2 -8 6 -27 9 -42 4 -26 2 -28
-32 -28 -39 0 -46 -13 -21 -46 21 -28 19 -33 -20 -50 -40 -17 -43 -24 -15 -49
28 -25 26 -48 -2 -40 -52 14 -69 28 -63 50 21 69 22 85 6 117 -14 29 -72 78
-92 78 -4 0 1 -30 12 -67 10 -37 16 -69 14 -72 -8 -7 -55 41 -72 73 -15 28
-16 29 -29 11 -21 -28 -17 -82 7 -106 11 -11 37 -28 58 -37 20 -10 50 -30 66
-45 17 -15 40 -30 53 -33 27 -7 27 -9 1 -45 -17 -24 -19 -32 -8 -45 10 -12
126 -105 199 -158 18 -14 -24 46 -45 64 -26 21 -75 97 -75 114 0 21 13 20 27
-2 13 -22 121 -113 108 -92 -5 8 -22 33 -37 54 -15 22 -27 40 -26 42 2 1 28
-5 58 -13 78 -22 317 -22 438 1 115 21 248 68 302 107 59 43 59 44 25 -64 -20
-65 -7 -53 35 32 18 39 38 71 43 71 12 0 1 -78 -19 -132 -28 -81 -12 -71 41
27 30 55 55 108 55 117 0 10 -13 24 -30 33 -16 9 -30 18 -30 20 0 12 50 82 74
105 45 41 68 87 68 136 1 61 -15 76 -30 26 -12 -40 -47 -80 -59 -68 -4 3 -9
33 -11 66 l-4 60 -28 -20 c-37 -26 -64 -84 -55 -118 4 -15 17 -41 30 -58 23
-31 23 -31 5 -61 -24 -40 -46 -54 -37 -25 4 12 10 31 13 42 6 18 2 20 -31 20
l-38 0 7 46 6 46 -38 -4 c-37 -3 -37 -3 -40 39 -3 40 -4 42 -28 33 -41 -16
-51 -12 -58 25 -8 39 -20 43 -54 19 -22 -15 -23 -14 -37 20 -17 41 -37 46 -59
14 -12 -17 -18 -19 -30 -9 -8 7 -18 21 -21 32 -9 26 -29 24 -45 -6 -7 -14 -18
-25 -23 -25 -5 0 -18 11 -29 25 -25 32 -33 31 -48 -5z m200 -335 c17 -20 8
-50 -15 -50 -20 0 -31 25 -21 51 7 18 20 18 36 -1z m-210 -34 c13 -24 2 -53
-18 -49 -21 4 -36 32 -29 52 9 22 34 20 47 -3z"/>
<path d="M276 1530 c3 -14 10 -32 15 -40 7 -12 8 -11 9 6 0 11 -7 29 -16 40
-14 18 -15 18 -8 -6z"/>
<path d="M3681 1220 c-67 -158 -121 -293 -121 -299 0 -12 56 -24 94 -19 25 3
35 21 148 291 69 165 117 292 112 296 -5 5 -32 11 -60 14 l-52 6 -121 -289z"/>
<path d="M1785 1413 c-9 -47 -27 -84 -66 -127 -28 -33 -29 -37 -19 -73 16 -53
4 -91 -74 -238 -52 -98 -69 -123 -98 -138 -56 -28 -90 -15 -151 58 l-51 63
-45 -14 c-88 -28 -273 -54 -376 -54 l-103 0 -6 -30 c-3 -16 -8 -43 -12 -59 -6
-34 -39 -66 -76 -75 -38 -9 -80 11 -163 78 -74 60 -89 58 -62 -7 9 -20 38 -52
72 -78 31 -24 85 -66 119 -93 79 -62 101 -71 149 -56 42 12 59 40 72 116 l6
42 111 1 c123 1 256 20 363 51 83 24 75 23 75 8 0 -7 22 -37 48 -67 43 -48 53
-54 89 -55 56 -1 71 15 142 149 75 141 87 181 72 228 -11 34 -10 38 29 89 38
50 60 101 60 141 0 21 -2 21 51 2 155 -55 289 -61 449 -21 l104 26 36 -38 c51
-52 256 -178 314 -193 71 -18 141 1 217 58 50 38 59 49 54 67 -4 12 -9 38 -12
58 -4 27 -15 47 -40 69 l-35 31 -32 -30 c-91 -85 -169 -113 -256 -92 -59 14
-256 134 -315 191 l-41 39 -98 -25 c-132 -34 -258 -34 -376 -1 -47 12 -92 26
-101 30 -13 6 -18 -1 -24 -31z"/>
<path d="M3355 1360 l-160 -58 -6 -36 c-7 -43 -12 -39 154 -146 138 -89 147
-90 147 -23 0 17 2 38 6 46 3 10 -18 28 -68 57 l-72 44 79 26 80 27 6 54 c3
30 3 57 0 60 -3 4 -78 -19 -166 -51z"/>
<path d="M3996 1338 c-3 -13 -7 -40 -9 -61 -3 -38 -2 -39 65 -79 37 -22 68
-42 68 -44 0 -1 -32 -13 -71 -26 -39 -12 -74 -29 -79 -38 -9 -18 -20 -110 -13
-110 12 0 319 112 324 118 4 4 9 22 12 40 7 33 7 33 -137 127 -79 52 -146 95
-149 95 -4 0 -9 -10 -11 -22z"/>
<path d="M4588 1240 c-36 -36 -78 -60 -165 -96 -35 -14 -44 -23 -49 -49 -3
-18 -18 -44 -32 -58 -30 -27 -340 -140 -385 -140 -15 0 -41 9 -57 21 -18 14
-44 22 -69 22 -38 0 -40 -2 -65 -55 -31 -67 -55 -79 -145 -71 -111 12 -151 40
-151 111 0 16 -7 26 -22 31 -13 4 -66 35 -118 70 -53 35 -101 64 -108 64 -29
0 4 -92 40 -111 12 -7 83 -52 156 -101 74 -48 142 -88 152 -88 15 0 19 -7 18
-42 -1 -62 29 -84 129 -93 96 -10 119 1 152 73 24 51 25 52 70 52 32 0 51 -6
67 -21 16 -15 36 -22 61 -21 38 1 329 101 369 127 12 8 28 33 35 55 15 44 31
56 109 84 25 9 55 24 67 34 l23 17 -19 108 c-10 59 -20 109 -22 111 -2 1 -21
-14 -41 -34z"/>
<path d="M294 1048 c7 -36 47 -93 77 -109 20 -10 20 -9 5 13 -9 13 -17 39 -19
58 -3 19 -14 41 -27 52 -33 27 -43 23 -36 -14z"/>
</g>
</svg>
